name Walk7.mot
datacolumns 19
datarows 12
range 3.06100000 3.07200000
endheader

                time	   L_ground_force_vx	   L_ground_force_vy	   L_ground_force_vz	   L_ground_force_px	   L_ground_force_py	   L_ground_force_pz	   R_ground_force_vx	   R_ground_force_vy	   R_ground_force_vz	   R_ground_force_px	   R_ground_force_py	   R_ground_force_pz	   L_ground_torque_x	   L_ground_torque_y	   L_ground_torque_z	   R_ground_torque_x	   R_ground_torque_y	   R_ground_torque_z	
          3.06100000	          0.00000000	          0.00000000	          0.00000000	          0.00000000	          0.00000000	          0.00000000	         33.95882881	        937.71561581	         75.13056208	         -0.22393047	          0.00000000	         -0.10131461	          0.00000000	          0.00000000	          0.00000000	          0.00000000	          0.59963343	          0.00000000	
          3.06200000	          0.00000000	          0.00000000	          0.00000000	          0.00000000	          0.00000000	          0.00000000	         34.16754170	        939.39229774	         75.31389761	         -0.22354870	          0.00000000	         -0.10128675	          0.00000000	          0.00000000	          0.00000000	          0.00000000	          0.61492773	          0.00000000	
          3.06300000	          0.00000000	          0.00000000	          0.00000000	          0.00000000	          0.00000000	          0.00000000	         34.39120064	        941.15538142	         75.52909425	         -0.22319515	          0.00000000	         -0.10118987	          0.00000000	          0.00000000	          0.00000000	          0.00000000	          0.60656715	          0.00000000	
          3.06400000	          0.00000000	          0.00000000	          0.00000000	          0.00000000	          0.00000000	          0.00000000	         34.65281201	        943.01138075	         75.73991416	         -0.22285664	          0.00000000	         -0.10107698	          0.00000000	          0.00000000	          0.00000000	          0.00000000	          0.58421530	          0.00000000	
          3.06500000	          0.00000000	          0.00000000	          0.00000000	          0.00000000	          0.00000000	          0.00000000	         34.97922797	        944.87083955	         75.93149204	         -0.22250323	          0.00000000	         -0.10100105	          0.00000000	          0.00000000	          0.00000000	          0.00000000	          0.55732024	          0.00000000	
          3.06600000	          0.00000000	          0.00000000	          0.00000000	          0.00000000	          0.00000000	          0.00000000	         35.38845467	        946.64109391	         76.10047901	         -0.22211314	          0.00000000	         -0.10099373	          0.00000000	          0.00000000	          0.00000000	          0.00000000	          0.53164073	          0.00000000	
          3.06700000	          0.00000000	          0.00000000	          0.00000000	          0.00000000	          0.00000000	          0.00000000	         35.86041779	        948.27426050	         76.24352777	         -0.22168649	          0.00000000	         -0.10105816	          0.00000000	          0.00000000	          0.00000000	          0.00000000	          0.51140154	          0.00000000	
          3.06800000	          0.00000000	          0.00000000	          0.00000000	          0.00000000	          0.00000000	          0.00000000	         36.33592285	        949.76949206	         76.36590832	         -0.22124559	          0.00000000	         -0.10116754	          0.00000000	          0.00000000	          0.00000000	          0.00000000	          0.49943252	          0.00000000	
          3.06900000	          0.00000000	          0.00000000	          0.00000000	          0.00000000	          0.00000000	          0.00000000	         36.75424267	        951.17260620	         76.48451956	         -0.22082056	          0.00000000	         -0.10127714	          0.00000000	          0.00000000	          0.00000000	          0.00000000	          0.49707853	          0.00000000	
          3.07000000	          0.00000000	          0.00000000	          0.00000000	          0.00000000	          0.00000000	          0.00000000	         37.09112192	        952.54538100	         76.61468288	         -0.22042526	          0.00000000	         -0.10135286	          0.00000000	          0.00000000	          0.00000000	          0.00000000	          0.50605939	          0.00000000	
          3.07100000	          0.00000000	          0.00000000	          0.00000000	          0.00000000	          0.00000000	          0.00000000	         37.36738268	        953.91395890	         76.76626141	         -0.22004954	          0.00000000	         -0.10139101	          0.00000000	          0.00000000	          0.00000000	          0.00000000	          0.52727932	          0.00000000	
          3.07200000	          0.00000000	          0.00000000	          0.00000000	          0.00000000	          0.00000000	          0.00000000	         37.63074342	        955.27018810	         76.94943609	         -0.21967790	          0.00000000	         -0.10140661	          0.00000000	          0.00000000	          0.00000000	          0.00000000	          0.55507570	          0.00000000	
